<svg width="24" height="24" xmlns="http://www.w3.org/2000/svg" xmlns:xlink="http://www.w3.org/1999/xlink">
  <defs/>
  <g>
    <path stroke="none" fill="#DEA312" d="M4 0 L20 0 Q24 0 24 4 L24 20 Q24 24 20 24 L4 24 Q0 24 0 20 L0 4 Q0 0 4 0 M20 2 L4 2 Q2 2 2 4 L2 20 Q2 22 4 22 L20 22 Q22 22 22 20 L22 4 Q22 2 20 2"/>
    <path stroke="none" fill="#FFEA9C" d="M20 2 Q22 2 22 4 L22 20 Q22 22 20 22 L4 22 Q2 22 2 20 L2 4 Q2 2 4 2 L20 2 M4 4 L4 20 20 20 20 4 4 4"/>
    <path stroke="none" fill="#FFCC00" d="M4 4 L20 4 20 20 4 20 4 4"/>
  </g>
</svg>