<svg width="192" height="64" xmlns="http://www.w3.org/2000/svg" xmlns:xlink="http://www.w3.org/1999/xlink">
  <defs/>
  <g>
    <path stroke="none" fill="#FFEA9C" d="M188 32 L188 6 187.95 5.3 188 5.35 Q187.65 4 186 4 L6 4 Q4.35 4 4.1 5.3 L4.05 5.5 4 6 4 32 2 32 2 6 2.1 5.05 Q2.5 2 6 2 L186 2 Q189.5 2 189.95 5.05 L190 6 190 32 188 32"/>
    <path stroke="none" fill="#FFCC00" d="M188 32 L4 32 4 6 4.05 5.5 4.1 5.3 Q4.35 4 6 4 L186 4 Q187.65 4 188 5.35 L187.95 5.3 188 6 188 32 M184 10 Q184 9.15 183.4 8.55 182.85 8 182 8 181.15 8 180.6 8.55 180 9.15 180 10 180 10.85 180.6 11.4 181.15 12 181.95 12 L182.05 12 Q182.85 12 183.4 11.4 184 10.85 184 10 M12 10 Q12 9.15 11.4 8.55 10.85 8 10 8 9.15 8 8.6 8.55 8 9.15 8 10 8 10.85 8.6 11.4 9.15 12 9.95 12 L10.05 12 Q10.85 12 11.4 11.4 12 10.85 12 10"/>
    <path stroke="none" fill="#DEA312" d="M12 10 Q12 10.85 11.4 11.4 10.85 12 10.05 12 L9.95 12 Q9.15 12 8.6 11.4 8 10.85 8 10 8 9.15 8.6 8.55 9.15 8 10 8 10.85 8 11.4 8.55 12 9.15 12 10 M190 32 L190 6 189.95 5.05 Q189.5 2 186 2 L6 2 Q2.5 2 2.1 5.05 L2 6 2 32 0 32 0 6 Q0 0 6 0 L186 0 Q192 0 192 6 L192 32 190 32 M184 10 Q184 10.85 183.4 11.4 182.85 12 182.05 12 L181.95 12 Q181.15 12 180.6 11.4 180 10.85 180 10 180 9.15 180.6 8.55 181.15 8 182 8 182.85 8 183.4 8.55 184 9.15 184 10"/>
    <path stroke="none" fill="#9696A3" d="M192 32 L192 58.25 Q191.85 64 186 64 L6 64 Q0.15 64 0 58.25 L0 32 2 32 2 58 Q2 62 6 62 L186 62 Q190 62 190 58 L190 32 192 32 M184 54 Q184 54.85 183.4 55.4 182.85 56 182 56 181.15 56 180.6 55.4 180 54.85 180 54 180 53.15 180.6 52.55 181.15 52 182 52 182.85 52 183.4 52.55 184 53.15 184 54 M12 54 Q12 54.85 11.4 55.4 10.85 56 10 56 9.15 56 8.6 55.4 8 54.85 8 54 8 53.15 8.6 52.55 9.15 52 10 52 10.85 52 11.4 52.55 12 53.15 12 54"/>
    <path stroke="none" fill="#FFFFFF" d="M188 32 L190 32 190 58 Q190 62 186 62 L6 62 Q2 62 2 58 L2 32 4 32 188 32 M188 58 L188 34 4 34 4 58 Q4 60 6 60 L155.45 60 156 60 186 60 Q188 60 188 58"/>
    <path stroke="none" fill="#DADCE7" d="M188 58 Q188 60 186 60 L156 60 155.45 60 6 60 Q4 60 4 58 L4 34 188 34 188 58 M184 54 Q184 53.15 183.4 52.55 182.85 52 182 52 181.15 52 180.6 52.55 180 53.15 180 54 180 54.85 180.6 55.4 181.15 56 182 56 182.85 56 183.4 55.4 184 54.85 184 54 M12 54 Q12 53.15 11.4 52.55 10.85 52 10 52 9.15 52 8.6 52.55 8 53.15 8 54 8 54.85 8.6 55.4 9.15 56 10 56 10.85 56 11.4 55.4 12 54.85 12 54"/>
  </g>
</svg>