<svg width="16" height="16" xmlns="http://www.w3.org/2000/svg" xmlns:xlink="http://www.w3.org/1999/xlink">
  <defs/>
  <g>
    <path stroke="none" fill="#FFFFFF" d="M12.25 3.8 Q14 5.55 14 8 14 10.45 12.25 12.25 10.45 14 8 14 5.55 14 3.8 12.25 2 10.45 2 8 2 5.55 3.8 3.8 5.55 2 8 2 10.45 2 12.25 3.8 M12 8 Q12 6.35 10.85 5.2 L10.8 5.2 Q9.65 4 8 4 6.35 4 5.2 5.2 4 6.35 4 8 4 9.65 5.2 10.8 L5.2 10.85 Q6.35 12 8 12 9.65 12 10.8 10.85 L10.85 10.8 Q12 9.65 12 8"/>
    <path stroke="none" fill="#EAEBF3" d="M12 8 L4 8 Q4 6.35 5.2 5.2 6.35 4 8 4 9.65 4 10.8 5.2 L10.85 5.2 Q12 6.35 12 8"/>
    <path stroke="none" fill="#989AAF" d="M16 8 Q16 11.3 13.65 13.65 11.3 16 8 16 4.7 16 2.35 13.65 0 11.3 0 8 0 4.7 2.35 2.35 4.7 0 8 0 11.3 0 13.65 2.35 16 4.7 16 8 M12.25 3.8 Q10.45 2 8 2 5.55 2 3.8 3.8 2 5.55 2 8 2 10.45 3.8 12.25 5.55 14 8 14 10.45 14 12.25 12.25 14 10.45 14 8 14 5.55 12.25 3.8"/>
    <path stroke="none" fill="#DADCE7" d="M12 8 Q12 9.65 10.85 10.8 L10.8 10.85 Q9.65 12 8 12 6.35 12 5.2 10.85 L5.2 10.8 Q4 9.65 4 8 L12 8"/>
  </g>
</svg>