<svg width="12" height="24" xmlns="http://www.w3.org/2000/svg" xmlns:xlink="http://www.w3.org/1999/xlink">
  <defs/>
  <g>
    <path stroke="none" fill="#FFFFFF" d="M0 2 L8 2 Q10 2 10 4 L10 20 Q10 22 8 22 L0 22 0 20 8 20 8 12 8 4 0 4 0 2"/>
    <path stroke="none" fill="#989AAF" d="M0 2 L0 0 8 0 Q12 0 12 4 L12 20 Q12 24 8 24 L0 24 0 22 8 22 Q10 22 10 20 L10 4 Q10 2 8 2 L0 2"/>
    <path stroke="none" fill="#EAEBF3" d="M0 4 L8 4 8 12 0 12 0 4"/>
    <path stroke="none" fill="#DADCE7" d="M8 12 L8 20 0 20 0 12 8 12"/>
  </g>
</svg>