<svg width="96" height="24" xmlns="http://www.w3.org/2000/svg" xmlns:xlink="http://www.w3.org/1999/xlink">
  <defs/>
  <g>
    <path stroke="none" fill="#989AAF" d="M12 0 L84 0 Q88.95 0 92.45 3.5 96 7.05 96 12 96 16.95 92.45 20.45 88.95 24 84 24 L12 24 Q7.05 24 3.5 20.45 0 16.95 0 12 0 7.05 3.5 3.5 7.05 0 12 0 M4.9 4.95 Q2 7.9 2 12 2 16.1 4.95 19.05 7.9 22 12 22 L84 22 Q88.1 22 91.05 19.05 94 16.1 94 12 94 7.9 91.05 4.95 88.1 2 84 2 L12 2 Q7.9 2 4.95 4.9 L4.9 4.95"/>
    <path stroke="none" fill="#FFFFFF" d="M4.9 4.95 L4.95 4.9 Q7.9 2 12 2 L84 2 Q88.1 2 91.05 4.95 94 7.9 94 12 94 16.1 91.05 19.05 88.1 22 84 22 L12 22 Q7.9 22 4.95 19.05 2 16.1 2 12 2 7.9 4.9 4.95 M92 12 Q92 8.7 89.65 6.35 L89.6 6.35 Q87.3 4 84 4 L12 4 Q8.7 4 6.35 6.35 4 8.7 4 12 4 15.3 6.35 17.6 L6.35 17.65 Q8.7 20 12 20 L84 20 Q87.3 20 89.6 17.65 L89.65 17.6 Q92 15.3 92 12"/>
    <path stroke="none" fill="#EAEBF3" d="M92 12 L4 12 Q4 8.7 6.35 6.35 8.7 4 12 4 L84 4 Q87.3 4 89.6 6.35 L89.65 6.35 Q92 8.7 92 12"/>
    <path stroke="none" fill="#DADCE7" d="M92 12 Q92 15.3 89.65 17.6 L89.6 17.65 Q87.3 20 84 20 L12 20 Q8.7 20 6.35 17.65 L6.35 17.6 Q4 15.3 4 12 L92 12"/>
  </g>
</svg>