<svg width="64" height="64" xmlns="http://www.w3.org/2000/svg" xmlns:xlink="http://www.w3.org/1999/xlink">
  <defs/>
  <g>
    <path stroke="none" fill="#9696A3" d="M60.8 60.85 L60.85 60.8 61 60.65 Q62 59.55 62 58 L62 6 Q62 4.45 61 3.3 L60.85 3.15 60.8 3.15 Q59.65 2 58 2 L36.55 2 36 2 6 2 Q4.35 2 3.15 3.15 2 4.35 2 6 L2 47.15 Q2 48.8 3.15 49.95 L3.15 50 14 60.85 Q15.2 62 16.85 62 L58 62 Q59.65 62 60.8 60.85 M62.2 62.25 Q60.45 64 58 64 L16.85 64 Q14.6 64 12.9 62.55 L12.55 62.25 1.7 51.4 1.45 51.05 Q0 49.4 0 47.15 L0 6 Q0 3.55 1.7 1.75 L1.75 1.7 Q3.55 0 6 0 L36 0 36.55 0 58 0 Q60.45 0 62.2 1.7 L62.25 1.7 62.25 1.75 62.4 1.9 62.5 2 Q64 3.7 64 6 L64 58 Q64 60.3 62.5 62 L62.4 62.1 62.25 62.2 62.25 62.25 62.2 62.25"/>
    <path stroke="none" fill="#FFFFFF" d="M60.8 60.85 Q59.65 62 58 62 L16.85 62 Q15.2 62 14 60.85 L3.15 50 3.15 49.95 Q2 48.8 2 47.15 L2 6 Q2 4.35 3.15 3.15 4.35 2 6 2 L36 2 36.55 2 58 2 Q59.65 2 60.8 3.15 L60.85 3.15 61 3.3 Q62 4.45 62 6 L62 58 Q62 59.55 61 60.65 L60.85 60.8 60.8 60.85 M36 4 L6 4 Q5.15 4 4.55 4.55 4 5.15 4 6 L4 47.15 Q4 48 4.55 48.55 L15.4 59.4 Q16 60 16.85 60 L58 60 Q58.85 60 59.4 59.4 60 58.85 60 58 L60 6 Q60 5.15 59.4 4.55 58.85 4 58 4 L36.55 4 36 4"/>
    <path stroke="none" fill="#DADCE7" d="M36 4 L36.55 4 58 4 Q58.85 4 59.4 4.55 60 5.15 60 6 L60 58 Q60 58.85 59.4 59.4 58.85 60 58 60 L16.85 60 Q16 60 15.4 59.4 L4.55 48.55 Q4 48 4 47.15 L4 6 Q4 5.15 4.55 4.55 5.15 4 6 4 L36 4"/>
  </g>
</svg>