<svg width="96" height="16" xmlns="http://www.w3.org/2000/svg" xmlns:xlink="http://www.w3.org/1999/xlink">
  <defs/>
  <g>
    <path stroke="none" fill="#DEA312" d="M92.25 12.25 Q94 10.45 94 8 94 5.55 92.25 3.8 90.45 2 88 2 L8 2 Q5.55 2 3.8 3.8 2 5.55 2 8 2 10.45 3.8 12.25 5.55 14 8 14 L88 14 Q90.45 14 92.25 12.25 M8 0 L88 0 Q91.3 0 93.65 2.35 96 4.7 96 8 96 11.3 93.65 13.65 91.3 16 88 16 L8 16 Q4.7 16 2.35 13.65 0 11.3 0 8 0 4.7 2.35 2.35 4.7 0 8 0"/>
    <path stroke="none" fill="#FFEA9C" d="M92.25 12.25 Q90.45 14 88 14 L8 14 Q5.55 14 3.8 12.25 2 10.45 2 8 2 5.55 3.8 3.8 5.55 2 8 2 L88 2 Q90.45 2 92.25 3.8 94 5.55 94 8 94 10.45 92.25 12.25 M4 8 Q4 9.65 5.2 10.8 L5.2 10.85 Q6.35 12 8 12 L88 12 Q89.65 12 90.8 10.85 L90.85 10.8 Q92 9.65 92 8 92 6.35 90.85 5.2 L90.8 5.2 Q89.65 4 88 4 L8 4 Q6.35 4 5.2 5.2 4 6.35 4 8"/>
    <path stroke="none" fill="#FFDC58" d="M4 8 Q4 6.35 5.2 5.2 6.35 4 8 4 L88 4 Q89.65 4 90.8 5.2 L90.85 5.2 Q92 6.35 92 8 L4 8"/>
    <path stroke="none" fill="#FFCC00" d="M4 8 L92 8 Q92 9.65 90.85 10.8 L90.8 10.85 Q89.65 12 88 12 L8 12 Q6.35 12 5.2 10.85 L5.2 10.8 Q4 9.65 4 8"/>
  </g>
</svg>