<svg width="24" height="24" xmlns="http://www.w3.org/2000/svg" xmlns:xlink="http://www.w3.org/1999/xlink">
  <defs/>
  <g>
    <path stroke="none" fill="#CD0B2A" d="M24 12 Q24 16.95 20.45 20.45 16.95 24 12 24 7.05 24 3.5 20.45 0 16.95 0 12 0 7.05 3.5 3.5 7.05 0 12 0 16.95 0 20.45 3.5 24 7.05 24 12 M19.05 4.95 Q16.1 2 12 2 7.9 2 4.95 4.9 L4.9 4.95 Q2 7.9 2 12 2 16.1 4.95 19.05 7.9 22 12 22 16.1 22 19.05 19.05 22 16.1 22 12 22 7.9 19.05 4.95"/>
    <path stroke="none" fill="#FF627B" d="M19.05 4.95 Q22 7.9 22 12 22 16.1 19.05 19.05 16.1 22 12 22 7.9 22 4.95 19.05 2 16.1 2 12 2 7.9 4.9 4.95 L4.95 4.9 Q7.9 2 12 2 16.1 2 19.05 4.95 M20 12 Q20 8.7 17.65 6.35 L17.6 6.35 Q15.3 4 12 4 8.7 4 6.35 6.35 4 8.7 4 12 4 15.3 6.35 17.6 L6.35 17.65 Q8.7 20 12 20 15.3 20 17.6 17.65 L17.65 17.6 Q20 15.3 20 12"/>
    <path stroke="none" fill="#F73F5D" d="M20 12 L4 12 Q4 8.7 6.35 6.35 8.7 4 12 4 15.3 4 17.6 6.35 L17.65 6.35 Q20 8.7 20 12"/>
    <path stroke="none" fill="#EE2747" d="M20 12 Q20 15.3 17.65 17.6 L17.6 17.65 Q15.3 20 12 20 8.7 20 6.35 17.65 L6.35 17.6 Q4 15.3 4 12 L20 12"/>
  </g>
</svg>