<svg width="64" height="64" xmlns="http://www.w3.org/2000/svg" xmlns:xlink="http://www.w3.org/1999/xlink">
  <defs/>
  <g>
    <path stroke="none" fill="#9696A3" d="M32 0 L58 0 Q64 0 64 6 L64 58.25 Q63.85 64 58 64 L6 64 Q0.15 64 0 58.25 L0 32 2 32 2 58 Q2 62 6 62 L58 62 Q62 62 62 58 L62 6 61.95 5.05 Q61.5 2 58 2 L32 2 32 0 M12 54 Q12 54.85 11.4 55.4 10.85 56 10 56 9.15 56 8.6 55.4 8 54.85 8 54 8 53.15 8.6 52.55 9.15 52 10 52 10.85 52 11.4 52.55 12 53.15 12 54 M56 54 Q56 54.85 55.4 55.4 54.85 56 54 56 53.15 56 52.6 55.4 52 54.85 52 54 52 53.15 52.6 52.55 53.15 52 54 52 54.85 52 55.4 52.55 56 53.15 56 54"/>
    <path stroke="none" fill="#FFFFFF" d="M32 2 L58 2 Q61.5 2 61.95 5.05 L62 6 62 58 Q62 62 58 62 L6 62 Q2 62 2 58 L2 32 4 32 24.5 32 Q30.95 31.8 31.85 26 32 30 30 32 28.15 33.9 24.5 34 L4 34 4 58 Q4 60 6 60 L27.45 60 28 60 58 60 Q60 60 60 58 L60 6 59.95 5.3 60 5.35 Q59.65 4 58 4 L32 4 32 2"/>
    <path stroke="none" fill="#DADCE7" d="M32 4 L58 4 Q59.65 4 60 5.35 L59.95 5.3 60 6 60 58 Q60 60 58 60 L28 60 27.45 60 6 60 Q4 60 4 58 L4 34 24.5 34 Q28.15 33.9 30 32 32 30 31.85 26 L32 24 32 4 M56 54 Q56 53.15 55.4 52.55 54.85 52 54 52 53.15 52 52.6 52.55 52 53.15 52 54 52 54.85 52.6 55.4 53.15 56 54 56 54.85 56 55.4 55.4 56 54.85 56 54 M12 54 Q12 53.15 11.4 52.55 10.85 52 10 52 9.15 52 8.6 52.55 8 53.15 8 54 8 54.85 8.6 55.4 9.15 56 10 56 10.85 56 11.4 55.4 12 54.85 12 54"/>
    <path stroke="none" fill="#FF627B" d="M4 32 L2 32 2 6 2.1 5.05 Q2.5 2 6 2 L32 2 32 4 6 4 Q4.35 4 4.1 5.3 L4.05 5.5 4 6 4 32"/>
    <path stroke="none" fill="#CD0B2A" d="M0 32 L0 6 Q0 0 6 0 L32 0 32 2 6 2 Q2.5 2 2.1 5.05 L2 6 2 32 0 32"/>
    <path stroke="none" fill="#EE2747" d="M31.85 26 Q30.95 31.8 24.5 32 L4 32 4 6 4.05 5.5 4.1 5.3 Q4.35 4 6 4 L32 4 32 24 31.85 26"/>
  </g>
</svg>