<svg width="192" height="64" xmlns="http://www.w3.org/2000/svg" xmlns:xlink="http://www.w3.org/1999/xlink">
  <defs/>
  <g>
    <path stroke="none" fill="#FF627B" d="M2 16 L2 6 2.1 5.05 Q2.5 2 6 2 L186 2 Q189.5 2 189.95 5.05 L190 6 190 16 188 16 188 6 187.95 5.3 188 5.35 Q187.65 4 186 4 L6 4 Q4.35 4 4.1 5.3 L4.05 5.5 4 6 4 16 2 16"/>
    <path stroke="none" fill="#EE2747" d="M4 16 L4 6 4.05 5.5 4.1 5.3 Q4.35 4 6 4 L186 4 Q187.65 4 188 5.35 L187.95 5.3 188 6 188 16 4 16"/>
    <path stroke="none" fill="#CD0B2A" d="M190 16 L190 6 189.95 5.05 Q189.5 2 186 2 L6 2 Q2.5 2 2.1 5.05 L2 6 2 16 0 16 0 6 Q0 0 6 0 L186 0 Q192 0 192 6 L192 16 190 16"/>
    <path stroke="none" fill="#FFFFFF" d="M190 16 L190 58 Q190 62 186 62 L6 62 Q2 62 2 58 L2 16 4 16 188 16 190 16 M188 58 L188 18 4 18 4 58 Q4 60 6 60 L142.65 60 151.95 60 186 60 Q188 60 188 58"/>
    <path stroke="none" fill="#9696A3" d="M190 16 L192 16 192 58.25 Q191.85 64 186 64 L6 64 Q0.15 64 0 58.25 L0 16 2 16 2 58 Q2 62 6 62 L186 62 Q190 62 190 58 L190 16 M184 54 Q184 54.85 183.4 55.4 182.85 56 182 56 181.15 56 180.6 55.4 180 54.85 180 54 180 53.15 180.6 52.55 181.15 52 182 52 182.85 52 183.4 52.55 184 53.15 184 54 M12 54 Q12 54.85 11.4 55.4 10.85 56 10 56 9.15 56 8.6 55.4 8 54.85 8 54 8 53.15 8.6 52.55 9.15 52 10 52 10.85 52 11.4 52.55 12 53.15 12 54"/>
    <path stroke="none" fill="#DADCE7" d="M12 54 Q12 53.15 11.4 52.55 10.85 52 10 52 9.15 52 8.6 52.55 8 53.15 8 54 8 54.85 8.6 55.4 9.15 56 10 56 10.85 56 11.4 55.4 12 54.85 12 54 M184 54 Q184 53.15 183.4 52.55 182.85 52 182 52 181.15 52 180.6 52.55 180 53.15 180 54 180 54.85 180.6 55.4 181.15 56 182 56 182.85 56 183.4 55.4 184 54.85 184 54 M188 58 Q188 60 186 60 L151.95 60 142.65 60 6 60 Q4 60 4 58 L4 18 188 18 188 58"/>
  </g>
</svg>