<svg width="28" height="28" xmlns="http://www.w3.org/2000/svg" xmlns:xlink="http://www.w3.org/1999/xlink">
  <defs/>
  <g>
    <path stroke="none" fill="#FFFFFF" d="M17 3 L17 7.05 Q17 8.25 16.15 9.1 L16.1 9.15 Q15.25 10 14.05 10 L14 10 Q12.75 10 11.9 9.15 L11.9 9.1 Q11 8.25 11 7.05 L11 3 Q11 1.75 11.9 0.9 12.75 0 14 0 L14.05 0 Q15.25 0 16.1 0.9 L16.15 0.9 Q17 1.75 17 3 M15 7 L15 3 14.7 2.3 Q14.4 2 14 2 13.6 2 13.3 2.3 13 2.6 13 3 L13 7 Q13 7.4 13.3 7.7 13.6 8 14 8 L14.7 7.7 15 7 M25 13 L21 13 Q20.6 13 20.3 13.3 20 13.6 20 14 20 14.4 20.3 14.7 L21 15 25 15 25.7 14.7 26 14 25.7 13.3 Q25.4 13 25 13 M21 11 L25.05 11 Q26.25 11 27.1 11.9 L27.15 11.9 Q28 12.75 28 14 L28 14.05 Q28 15.25 27.15 16.1 L27.1 16.15 Q26.25 17 25.05 17 L21 17 Q19.75 17 18.9 16.15 L18.9 16.1 Q18 15.25 18 14.05 L18 14 Q18 12.75 18.9 11.9 19.75 11 21 11 M17 21 L17 25.05 Q17 26.25 16.15 27.1 L16.1 27.15 Q15.25 28 14.05 28 L14 28 Q12.75 28 11.9 27.15 L11.9 27.1 Q11 26.25 11 25.05 L11 21 Q11 19.75 11.9 18.9 12.75 18 14 18 L14.05 18 Q15.25 18 16.1 18.9 L16.15 18.9 Q17 19.75 17 21 M15 25 L15 21 14.7 20.3 Q14.4 20 14 20 13.6 20 13.3 20.3 13 20.6 13 21 L13 25 Q13 25.4 13.3 25.7 13.6 26 14 26 L14.7 25.7 15 25 M7 13 L3 13 Q2.6 13 2.3 13.3 2 13.6 2 14 2 14.4 2.3 14.7 2.6 15 3 15 L7 15 7.7 14.7 8 14 7.7 13.3 Q7.4 13 7 13 M3 11 L7.05 11 Q8.25 11 9.1 11.9 L9.15 11.9 Q10 12.75 10 14 L10 14.05 Q10 15.25 9.15 16.1 L9.1 16.15 Q8.25 17 7.05 17 L3 17 Q1.75 17 0.9 16.15 L0.9 16.1 Q0 15.25 0 14.05 L0 14 Q0 12.75 0.9 11.9 1.75 11 3 11"/>
    <path stroke="none" fill="#EE2747" d="M25 13 Q25.4 13 25.7 13.3 L26 14 25.7 14.7 25 15 21 15 20.3 14.7 Q20 14.4 20 14 20 13.6 20.3 13.3 20.6 13 21 13 L25 13 M15 7 L14.7 7.7 14 8 Q13.6 8 13.3 7.7 13 7.4 13 7 L13 3 Q13 2.6 13.3 2.3 13.6 2 14 2 14.4 2 14.7 2.3 L15 3 15 7 M7 13 Q7.4 13 7.7 13.3 L8 14 7.7 14.7 7 15 3 15 Q2.6 15 2.3 14.7 2 14.4 2 14 2 13.6 2.3 13.3 2.6 13 3 13 L7 13 M15 25 L14.7 25.7 14 26 Q13.6 26 13.3 25.7 13 25.4 13 25 L13 21 Q13 20.6 13.3 20.3 13.6 20 14 20 14.4 20 14.7 20.3 L15 21 15 25"/>
  </g>
</svg>