<svg width="30" height="30" xmlns="http://www.w3.org/2000/svg" xmlns:xlink="http://www.w3.org/1999/xlink">
  <defs/>
  <g>
    <path stroke="none" fill="#FFFFFF" d="M19 4 L19 8 Q19 9.65 17.85 10.85 16.65 12 15.05 12 L15 12 Q13.35 12 12.2 10.85 L12.15 10.85 Q11 9.65 11 8 L11 4 Q11 2.35 12.15 1.2 L12.2 1.15 Q13.35 0 15 0 L15.05 0 Q16.65 0 17.85 1.15 L17.85 1.2 Q19 2.35 19 4 M17 8 L17 4 Q17 3.15 16.45 2.6 15.85 2 15 2 14.15 2 13.6 2.6 13 3.15 13 4 L13 8 Q13 8.85 13.6 9.45 14.15 10 15 10 15.85 10 16.45 9.45 17 8.85 17 8 M19.2 12.15 Q20.35 11 22 11 L26 11 Q27.65 11 28.85 12.15 L28.85 12.2 Q30 13.35 30 15 L30 15.05 Q30 16.65 28.85 17.85 27.65 19 26 19 L22 19 Q20.35 19 19.2 17.85 L19.15 17.85 Q18 16.65 18 15.05 L18 15 Q18 13.35 19.15 12.2 L19.2 12.15 M26 13 L22 13 Q21.15 13 20.6 13.6 20 14.15 20 15 20 15.85 20.6 16.45 21.15 17 22 17 L26 17 Q26.85 17 27.45 16.45 28 15.85 28 15 28 14.15 27.45 13.6 26.85 13 26 13 M19 22 L19 26 Q19 27.65 17.85 28.85 16.65 30 15.05 30 L15 30 Q13.35 30 12.2 28.85 L12.15 28.85 Q11 27.65 11 26 L11 22 Q11 20.35 12.15 19.2 L12.2 19.15 Q13.35 18 15 18 L15.05 18 Q16.65 18 17.85 19.15 L17.85 19.2 Q19 20.35 19 22 M17 26 L17 22 Q17 21.15 16.45 20.6 15.85 20 15 20 14.15 20 13.6 20.6 13 21.15 13 22 L13 26 Q13 26.85 13.6 27.45 14.15 28 15 28 15.85 28 16.45 27.45 17 26.85 17 26 M1.2 12.15 Q2.35 11 4 11 L8 11 Q9.65 11 10.85 12.15 L10.85 12.2 Q12 13.35 12 15 L12 15.05 Q12 16.65 10.85 17.85 9.65 19 8 19 L4 19 Q2.35 19 1.2 17.85 L1.15 17.85 Q0 16.65 0 15.05 L0 15 Q0 13.35 1.15 12.2 L1.2 12.15 M8 13 L4 13 Q3.15 13 2.6 13.6 2 14.15 2 15 2 15.85 2.6 16.45 3.15 17 4 17 L8 17 Q8.85 17 9.45 16.45 10 15.85 10 15 10 14.15 9.45 13.6 8.85 13 8 13"/>
    <path stroke="none" fill="#EE2747" d="M8 13 Q8.85 13 9.45 13.6 10 14.15 10 15 10 15.85 9.45 16.45 8.85 17 8 17 L4 17 Q3.15 17 2.6 16.45 2 15.85 2 15 2 14.15 2.6 13.6 3.15 13 4 13 L8 13 M17 8 Q17 8.85 16.45 9.45 15.85 10 15 10 14.15 10 13.6 9.45 13 8.85 13 8 L13 4 Q13 3.15 13.6 2.6 14.15 2 15 2 15.85 2 16.45 2.6 17 3.15 17 4 L17 8 M26 13 Q26.85 13 27.45 13.6 28 14.15 28 15 28 15.85 27.45 16.45 26.85 17 26 17 L22 17 Q21.15 17 20.6 16.45 20 15.85 20 15 20 14.15 20.6 13.6 21.15 13 22 13 L26 13 M17 26 Q17 26.85 16.45 27.45 15.85 28 15 28 14.15 28 13.6 27.45 13 26.85 13 26 L13 22 Q13 21.15 13.6 20.6 14.15 20 15 20 15.85 20 16.45 20.6 17 21.15 17 22 L17 26"/>
  </g>
</svg>