<svg width="8" height="16" xmlns="http://www.w3.org/2000/svg" xmlns:xlink="http://www.w3.org/1999/xlink">
  <defs/>
  <g>
    <path stroke="none" fill="#FF627B" d="M8 2 L8 4 Q6.35 4 5.2 5.2 4 6.35 4 8 4 9.65 5.2 10.8 L5.2 10.85 Q6.35 12 8 12 L8 14 Q5.55 14 3.8 12.25 2 10.45 2 8 2 5.55 3.8 3.8 5.55 2 8 2"/>
    <path stroke="none" fill="#EE2747" d="M8 4 L8 12 Q6.35 12 5.2 10.85 L5.2 10.8 Q4 9.65 4 8 4 6.35 5.2 5.2 6.35 4 8 4"/>
    <path stroke="none" fill="#CD0B2A" d="M8 14 L8 16 Q4.7 16 2.35 13.65 0 11.3 0 8 0 4.7 2.35 2.35 4.7 0 8 0 L8 2 Q5.55 2 3.8 3.8 2 5.55 2 8 2 10.45 3.8 12.25 5.55 14 8 14"/>
  </g>
</svg>