<svg width="192" height="64" xmlns="http://www.w3.org/2000/svg" xmlns:xlink="http://www.w3.org/1999/xlink">
  <defs/>
  <g>
    <path stroke="none" fill="#9696A3" d="M0 24.75 L0 6 Q0 0 6 0 L186 0 Q192 0 192 6 L192 24.75 191.95 25 192 25.4 192 54.25 Q191.85 60 186 60 L6 60 Q0.15 60 0 54.25 L0 25.4 0.05 25 0 24.75 M184 10 Q184 10.85 183.4 11.4 182.85 12 182 12 181.15 12 180.6 11.4 180 10.85 180 10 180 9.15 180.6 8.55 181.15 8 182 8 182.85 8 183.4 8.55 184 9.15 184 10 M189.95 25.2 L189.95 24.8 190 24 190 6 189.95 5.05 Q189.5 2 186 2 L6 2 Q2.5 2 2.1 5.05 L2 6 2 24 2.05 24.8 2.05 25.2 2 26 2 54 Q2 58 6 58 L186 58 Q190 58 190 54 L190 26 189.95 25.2 M184 50 Q184 50.85 183.4 51.4 182.85 52 182 52 181.15 52 180.6 51.4 180 50.85 180 50 180 49.15 180.6 48.55 181.15 48 182 48 182.85 48 183.4 48.55 184 49.15 184 50 M12 10 Q12 10.85 11.4 11.4 10.85 12 10 12 9.15 12 8.6 11.4 8 10.85 8 10 8 9.15 8.6 8.55 9.15 8 10 8 10.85 8 11.4 8.55 12 9.15 12 10 M12 50 Q12 50.85 11.4 51.4 10.85 52 10 52 9.15 52 8.6 51.4 8 50.85 8 50 8 49.15 8.6 48.55 9.15 48 10 48 10.85 48 11.4 48.55 12 49.15 12 50"/>
    <path stroke="none" fill="#FFFFFF" d="M6 4 Q4.35 4 4.1 5.3 L4.05 5.5 4 6 4 24 4.05 24.55 4.05 24.8 4.05 25.2 4.05 25.45 4 26 4 54 Q4 56 6 56 L186 56 Q188 56 188 54 L188 26 188 25.45 187.95 25.2 187.95 24.8 188 24.55 188 24 188 6 187.95 5.3 188 5.35 Q187.65 4 186 4 L6 4 M189.95 25.2 L190 26 190 54 Q190 58 186 58 L6 58 Q2 58 2 54 L2 26 2.05 25.2 2.05 24.8 2 24 2 6 2.1 5.05 Q2.5 2 6 2 L186 2 Q189.5 2 189.95 5.05 L190 6 190 24 189.95 24.8 189.95 25.2"/>
    <path stroke="none" fill="#DADCE7" d="M6 4 L186 4 Q187.65 4 188 5.35 L187.95 5.3 188 6 188 24 188 24.55 187.95 24.8 187.95 25.2 188 25.45 188 26 188 54 Q188 56 186 56 L6 56 Q4 56 4 54 L4 26 4.05 25.45 4.05 25.2 4.05 24.8 4.05 24.55 4 24 4 6 4.05 5.5 4.1 5.3 Q4.35 4 6 4 M184 10 Q184 9.15 183.4 8.55 182.85 8 182 8 181.15 8 180.6 8.55 180 9.15 180 10 180 10.85 180.6 11.4 181.15 12 182 12 182.85 12 183.4 11.4 184 10.85 184 10 M184 50 Q184 49.15 183.4 48.55 182.85 48 182 48 181.15 48 180.6 48.55 180 49.15 180 50 180 50.85 180.6 51.4 181.15 52 182 52 182.85 52 183.4 51.4 184 50.85 184 50 M12 50 Q12 49.15 11.4 48.55 10.85 48 10 48 9.15 48 8.6 48.55 8 49.15 8 50 8 50.85 8.6 51.4 9.15 52 10 52 10.85 52 11.4 51.4 12 50.85 12 50 M12 10 Q12 9.15 11.4 8.55 10.85 8 10 8 9.15 8 8.6 8.55 8 9.15 8 10 8 10.85 8.6 11.4 9.15 12 10 12 10.85 12 11.4 11.4 12 10.85 12 10"/>
    <path stroke="none" fill="#FF0000" d="M192 24.75 L192 25.4 191.95 25 192 24.75 M0 25.4 L0 24.75 0.05 25 0 25.4"/>
    <path stroke="none" fill="#747487" d="M192 54.25 L192 58 Q192 64 186 64 L6 64 Q0 64 0 58 L0 54.25 Q0.15 60 6 60 L186 60 Q191.85 60 192 54.25"/>
  </g>
</svg>