<svg width="8" height="16" xmlns="http://www.w3.org/2000/svg" xmlns:xlink="http://www.w3.org/1999/xlink">
  <defs/>
  <g>
    <path stroke="none" fill="#167DA8" d="M0 14 Q2.45 14 4.2 12.25 6 10.45 6 8 6 5.55 4.2 3.8 2.45 2 0 2 L0 0 Q3.3 0 5.65 2.35 8 4.7 8 8 8 11.3 5.65 13.65 3.3 16 0 16 L0 14"/>
    <path stroke="none" fill="#1C9FD7" d="M0 4 Q1.65 4 2.8 5.2 4 6.35 4 8 4 9.65 2.8 10.8 L2.8 10.85 Q1.65 12 0 12 L0 4"/>
    <path stroke="none" fill="#36BDF7" d="M0 4 L0 2 Q2.45 2 4.2 3.8 6 5.55 6 8 6 10.45 4.2 12.25 2.45 14 0 14 L0 12 Q1.65 12 2.8 10.85 L2.8 10.8 Q4 9.65 4 8 4 6.35 2.8 5.2 1.65 4 0 4"/>
  </g>
</svg>