<svg width="64" height="64" xmlns="http://www.w3.org/2000/svg" xmlns:xlink="http://www.w3.org/1999/xlink">
  <defs/>
  <g>
    <path stroke="none" fill="#9696A3" d="M62 6 L61.95 5.05 Q61.5 2 58 2 L6 2 Q2.5 2 2.1 5.05 L2 6 2 58 Q2 62 6 62 L58 62 Q62 62 62 58 L62 6 M56 10 Q56 10.85 55.4 11.4 54.85 12 54 12 53.15 12 52.6 11.4 52 10.85 52 10 52 9.15 52.6 8.55 53.15 8 54 8 54.85 8 55.4 8.55 56 9.15 56 10 M0 58.25 L0 6 Q0 0 6 0 L58 0 Q64 0 64 6 L64 58.25 Q63.85 64 58 64 L6 64 Q0.15 64 0 58.25 M12 10 Q12 10.85 11.4 11.4 10.85 12 10 12 9.15 12 8.6 11.4 8 10.85 8 10 8 9.15 8.6 8.55 9.15 8 10 8 10.85 8 11.4 8.55 12 9.15 12 10 M12 54 Q12 54.85 11.4 55.4 10.85 56 10 56 9.15 56 8.6 55.4 8 54.85 8 54 8 53.15 8.6 52.55 9.15 52 10 52 10.85 52 11.4 52.55 12 53.15 12 54 M56 54 Q56 54.85 55.4 55.4 54.85 56 54 56 53.15 56 52.6 55.4 52 54.85 52 54 52 53.15 52.6 52.55 53.15 52 54 52 54.85 52 55.4 52.55 56 53.15 56 54"/>
    <path stroke="none" fill="#FFFFFF" d="M62 6 L62 58 Q62 62 58 62 L6 62 Q2 62 2 58 L2 6 2.1 5.05 Q2.5 2 6 2 L58 2 Q61.5 2 61.95 5.05 L62 6 M6 4 Q4.35 4 4.1 5.3 L4.05 5.5 4 6 4 58 Q4 60 6 60 L27.45 60 28 60 58 60 Q60 60 60 58 L60 6 59.95 5.3 60 5.35 Q59.65 4 58 4 L6 4"/>
    <path stroke="none" fill="#DADCE7" d="M6 4 L58 4 Q59.65 4 60 5.35 L59.95 5.3 60 6 60 58 Q60 60 58 60 L28 60 27.45 60 6 60 Q4 60 4 58 L4 6 4.05 5.5 4.1 5.3 Q4.35 4 6 4 M56 10 Q56 9.15 55.4 8.55 54.85 8 54 8 53.15 8 52.6 8.55 52 9.15 52 10 52 10.85 52.6 11.4 53.15 12 54 12 54.85 12 55.4 11.4 56 10.85 56 10 M56 54 Q56 53.15 55.4 52.55 54.85 52 54 52 53.15 52 52.6 52.55 52 53.15 52 54 52 54.85 52.6 55.4 53.15 56 54 56 54.85 56 55.4 55.4 56 54.85 56 54 M12 54 Q12 53.15 11.4 52.55 10.85 52 10 52 9.15 52 8.6 52.55 8 53.15 8 54 8 54.85 8.6 55.4 9.15 56 10 56 10.85 56 11.4 55.4 12 54.85 12 54 M12 10 Q12 9.15 11.4 8.55 10.85 8 10 8 9.15 8 8.6 8.55 8 9.15 8 10 8 10.85 8.6 11.4 9.15 12 10 12 10.85 12 11.4 11.4 12 10.85 12 10"/>
  </g>
</svg>