<svg width="64" height="64" xmlns="http://www.w3.org/2000/svg" xmlns:xlink="http://www.w3.org/1999/xlink">
  <defs/>
  <g>
    <path stroke="none" fill="#9696A3" d="M61.95 25.2 L61.95 24.8 62 24 62 6 61.95 5.05 Q61.5 2 58 2 L6 2 Q2.5 2 2.1 5.05 L2 6 2 24 2.05 24.8 2.05 25.2 2 26 2 54 Q2 58 6 58 L58 58 Q62 58 62 54 L62 26 61.95 25.2 M56 10 Q56 10.85 55.4 11.4 54.85 12 54 12 53.15 12 52.6 11.4 52 10.85 52 10 52 9.15 52.6 8.55 53.15 8 54 8 54.85 8 55.4 8.55 56 9.15 56 10 M56 50 Q56 50.85 55.4 51.4 54.85 52 54 52 53.15 52 52.6 51.4 52 50.85 52 50 52 49.15 52.6 48.55 53.15 48 54 48 54.85 48 55.4 48.55 56 49.15 56 50 M64 24.75 L63.95 25 64 25.4 64 54.25 Q63.85 60 58 60 L6 60 Q0.15 60 0 54.25 L0 25.4 0.05 25 0 24.75 0 6 Q0 0 6 0 L58 0 Q64 0 64 6 L64 24.75 M12 10 Q12 10.85 11.4 11.4 10.85 12 10 12 9.15 12 8.6 11.4 8 10.85 8 10 8 9.15 8.6 8.55 9.15 8 10 8 10.85 8 11.4 8.55 12 9.15 12 10 M12 50 Q12 50.85 11.4 51.4 10.85 52 10 52 9.15 52 8.6 51.4 8 50.85 8 50 8 49.15 8.6 48.55 9.15 48 10 48 10.85 48 11.4 48.55 12 49.15 12 50"/>
    <path stroke="none" fill="#FFFFFF" d="M61.95 25.2 L62 26 62 54 Q62 58 58 58 L6 58 Q2 58 2 54 L2 26 2.05 25.2 2.05 24.8 2 24 2 6 2.1 5.05 Q2.5 2 6 2 L58 2 Q61.5 2 61.95 5.05 L62 6 62 24 61.95 24.8 61.95 25.2 M6 4 Q4.35 4 4.1 5.3 L4.05 5.5 4 6 4 24 4.05 24.55 4.05 24.8 4.05 25.2 4.05 25.45 4 26 4 54 Q4 56 6 56 L58 56 Q60 56 60 54 L60 26 60 25.45 59.95 25.2 59.95 24.8 60 24.55 60 24 60 6 59.95 5.3 60 5.35 Q59.65 4 58 4 L6 4"/>
    <path stroke="none" fill="#DADCE7" d="M6 4 L58 4 Q59.65 4 60 5.35 L59.95 5.3 60 6 60 24 60 24.55 59.95 24.8 59.95 25.2 60 25.45 60 26 60 54 Q60 56 58 56 L6 56 Q4 56 4 54 L4 26 4.05 25.45 4.05 25.2 4.05 24.8 4.05 24.55 4 24 4 6 4.05 5.5 4.1 5.3 Q4.35 4 6 4 M56 50 Q56 49.15 55.4 48.55 54.85 48 54 48 53.15 48 52.6 48.55 52 49.15 52 50 52 50.85 52.6 51.4 53.15 52 54 52 54.85 52 55.4 51.4 56 50.85 56 50 M56 10 Q56 9.15 55.4 8.55 54.85 8 54 8 53.15 8 52.6 8.55 52 9.15 52 10 52 10.85 52.6 11.4 53.15 12 54 12 54.85 12 55.4 11.4 56 10.85 56 10 M12 10 Q12 9.15 11.4 8.55 10.85 8 10 8 9.15 8 8.6 8.55 8 9.15 8 10 8 10.85 8.6 11.4 9.15 12 10 12 10.85 12 11.4 11.4 12 10.85 12 10 M12 50 Q12 49.15 11.4 48.55 10.85 48 10 48 9.15 48 8.6 48.55 8 49.15 8 50 8 50.85 8.6 51.4 9.15 52 10 52 10.85 52 11.4 51.4 12 50.85 12 50"/>
    <path stroke="none" fill="#FF0000" d="M64 25.4 L63.95 25 64 24.75 64 25.4 M0 24.75 L0.05 25 0 25.4 0 24.75"/>
    <path stroke="none" fill="#747487" d="M0 54.25 Q0.15 60 6 60 L58 60 Q63.85 60 64 54.25 L64 58 Q64 64 58 64 L6 64 Q0 64 0 58 L0 54.25"/>
  </g>
</svg>