<svg width="30" height="30" xmlns="http://www.w3.org/2000/svg" xmlns:xlink="http://www.w3.org/1999/xlink">
  <defs/>
  <g>
    <path stroke="none" fill="#000000" d="M15 0 L15.05 0 Q16.65 0 17.85 1.15 L17.85 1.2 18.75 2.55 Q21.75 3.4 24.15 5.75 L24.2 5.75 24.2 5.8 Q26.6 8.25 27.5 11.3 L28.85 12.15 28.85 12.2 Q30 13.35 30 15 L30 15.05 Q30 16.65 28.85 17.85 L27.5 18.75 Q26.6 21.75 24.2 24.2 21.75 26.6 18.75 27.5 L17.85 28.85 Q16.65 30 15.05 30 L15 30 Q13.35 30 12.2 28.85 L12.15 28.85 Q11.55 28.2 11.3 27.5 8.25 26.6 5.8 24.2 L5.75 24.2 5.75 24.15 Q3.4 21.75 2.55 18.75 L1.2 17.85 1.15 17.85 Q0 16.65 0 15.05 L0 15 Q0 13.35 1.15 12.2 L1.2 12.15 Q1.8 11.55 2.5 11.3 3.35 8.3 5.7 5.85 L5.75 5.85 5.85 5.75 5.85 5.7 Q8.3 3.35 11.3 2.5 11.55 1.8 12.15 1.2 L12.2 1.15 Q13.35 0 15 0 M22.75 7.2 Q20.25 4.75 17 4.2 L17 4 Q17 3.15 16.45 2.6 15.85 2 15 2 14.15 2 13.6 2.6 13 3.15 13 4 L13 4.2 Q9.75 4.7 7.25 7.15 L7.15 7.25 Q4.7 9.75 4.2 13 L4 13 Q3.15 13 2.6 13.6 2 14.15 2 15 2 15.85 2.6 16.45 3.15 17 4 17 L4.2 17 Q4.75 20.25 7.2 22.75 L7.2 22.8 Q9.75 25.25 13 25.85 L13 26 Q13 26.85 13.6 27.45 14.15 28 15 28 15.85 28 16.45 27.45 17 26.85 17 26 L17 25.85 Q20.25 25.25 22.8 22.8 25.25 20.25 25.85 17 L26 17 Q26.85 17 27.45 16.45 28 15.85 28 15 28 14.15 27.45 13.6 26.85 13 26 13 L25.85 13 Q25.25 9.75 22.8 7.2 L22.75 7.2 M18.55 11.45 L17.85 10.85 Q16.65 12 15.05 12 L15 12 Q13.35 12 12.2 10.85 L11.5 11.4 11.45 11.45 11.4 11.5 10.85 12.2 Q12 13.35 12 15 L12 15.05 Q12 16.65 10.85 17.85 L11.45 18.55 12.2 19.15 Q13.35 18 15 18 L15.05 18 Q16.65 18 17.8 19.15 L18.5 18.55 18.55 18.5 19.15 17.8 Q18 16.65 18 15.05 L18 15 Q18 13.35 19.15 12.2 L18.55 11.45 M19.95 10.05 Q21.25 11.35 21.75 13.05 21.05 13.1 20.6 13.6 20 14.15 20 15 20 15.85 20.6 16.45 21.05 16.9 21.75 17 21.25 18.6 19.95 19.95 18.6 21.25 17 21.75 16.9 21.05 16.45 20.6 15.85 20 15 20 14.15 20 13.6 20.6 13.1 21.05 13.05 21.75 11.35 21.25 10.05 19.95 L10 19.95 Q8.75 18.6 8.3 17 8.95 16.9 9.45 16.45 10 15.85 10 15 10 14.15 9.45 13.6 8.95 13.1 8.3 13.05 8.75 11.4 10 10.05 L10.05 10 Q11.4 8.75 13.05 8.3 13.1 8.95 13.6 9.45 14.15 10 15 10 15.85 10 16.45 9.45 L17 8.3 Q18.6 8.75 19.95 10 L19.95 10.05"/>
    <path stroke="none" fill="#FFFFFF" d="M19.95 10.05 L19.95 10 Q18.6 8.75 17 8.3 L16.45 9.45 Q15.85 10 15 10 14.15 10 13.6 9.45 13.1 8.95 13.05 8.3 11.4 8.75 10.05 10 L10 10.05 Q8.75 11.4 8.3 13.05 8.95 13.1 9.45 13.6 10 14.15 10 15 10 15.85 9.45 16.45 8.95 16.9 8.3 17 8.75 18.6 10 19.95 L10.05 19.95 Q11.35 21.25 13.05 21.75 13.1 21.05 13.6 20.6 14.15 20 15 20 15.85 20 16.45 20.6 16.9 21.05 17 21.75 18.6 21.25 19.95 19.95 21.25 18.6 21.75 17 21.05 16.9 20.6 16.45 20 15.85 20 15 20 14.15 20.6 13.6 21.05 13.1 21.75 13.05 21.25 11.35 19.95 10.05 M22.75 7.2 L22.8 7.2 Q25.25 9.75 25.85 13 L26 13 Q26.85 13 27.45 13.6 28 14.15 28 15 28 15.85 27.45 16.45 26.85 17 26 17 L25.85 17 Q25.25 20.25 22.8 22.8 20.25 25.25 17 25.85 L17 26 Q17 26.85 16.45 27.45 15.85 28 15 28 14.15 28 13.6 27.45 13 26.85 13 26 L13 25.85 Q9.75 25.25 7.2 22.8 L7.2 22.75 Q4.75 20.25 4.2 17 L4 17 Q3.15 17 2.6 16.45 2 15.85 2 15 2 14.15 2.6 13.6 3.15 13 4 13 L4.2 13 Q4.7 9.75 7.15 7.25 L7.25 7.15 Q9.75 4.7 13 4.2 L13 4 Q13 3.15 13.6 2.6 14.15 2 15 2 15.85 2 16.45 2.6 17 3.15 17 4 L17 4.2 Q20.25 4.75 22.75 7.2"/>
  </g>
</svg>