<svg width="64" height="64" xmlns="http://www.w3.org/2000/svg" xmlns:xlink="http://www.w3.org/1999/xlink">
  <defs/>
  <g>
    <path stroke="none" fill="#9696A3" d="M42.9 32 L42.3 31.55 Q40.95 30.45 40.1 29 L40.05 28.9 28.2 4.9 28.15 4.75 Q27 2.3 23.25 2 L5.95 2 Q2 2 2 6 L2 32 2 34 2 58.25 Q2.15 62 6 62 L58 62 Q61.9 62 62 58.2 L62 37.75 61.7 36 Q61 34.35 59 34.05 L58.35 34 49.6 34 49.5 34 Q45.35 33.8 42.9 32 M0 58.25 L0 6 Q0 0 5.95 0 L23.4 0 Q28.6 0.45 30 4 L41.85 28 Q42.5 29.15 43.55 30 45.7 31.8 49.6 32 L58.4 32 59.25 32.1 Q61.75 32.4 62.95 34 63.55 34.85 63.8 36 L64 37.65 64 58.25 Q63.85 64 58 64 L6 64 Q0.15 64 0 58.25"/>
    <path stroke="none" fill="#FFFFFF" d="M39.9 32 Q39 31.1 38.4 30 L38.3 29.85 38.3 29.8 26.4 5.75 26.35 5.55 Q25.45 4.2 23.05 4 L5.95 4 Q4 4 4 6 L4 32 2 32 2 6 Q2 2 5.95 2 L23.25 2 Q27 2.3 28.15 4.75 L28.2 4.9 40.05 28.9 40.1 29 Q40.95 30.45 42.3 31.55 L42.9 32 39.9 32 M49.5 34 L49.6 34 58.35 34 59 34.05 Q61 34.35 61.7 36 L62 37.75 62 58.2 Q61.9 62 58 62 L6 62 Q2.15 62 2 58.25 L2 34 49.5 34 M49.45 36 L4 36 4 58.25 Q4.15 60 6 60 L58 60 Q59.9 60 60 58.15 L60 37.75 Q59.9 36.3 58.75 36.05 L58.3 36 49.6 36 49.45 36"/>
    <path stroke="none" fill="#DADCE7" d="M49.45 36 L49.6 36 58.3 36 58.75 36.05 Q59.9 36.3 60 37.75 L60 58.15 Q59.9 60 58 60 L6 60 Q4.15 60 4 58.25 L4 36 49.45 36 M4 32 L4 6 Q4 4 5.95 4 L23.05 4 Q25.45 4.2 26.35 5.55 L26.4 5.75 38.3 29.8 38.3 29.85 38.4 30 Q39 31.1 39.9 32 L4 32"/>
    <path stroke="none" fill="#CFD1D9" d="M4 32 L39.9 32 42.9 32 Q45.35 33.8 49.5 34 L2 34 2 32 4 32"/>
  </g>
</svg>