<svg width="64" height="64" xmlns="http://www.w3.org/2000/svg" xmlns:xlink="http://www.w3.org/1999/xlink">
  <defs/>
  <g>
    <path stroke="none" fill="#747487" d="M0 7.75 L0 6 Q0 0 6 0 L58 0 Q64 0 64 6 L64 7.75 Q63.85 2 58 2 L6 2 Q0.15 2 0 7.75 M56 12 Q56 12.85 55.4 13.4 54.85 14 54 14 53.15 14 52.6 13.4 52 12.85 52 12 52 11.15 52.6 10.55 53.15 10 54 10 54.85 10 55.4 10.55 56 11.15 56 12 M12 12 Q12 12.85 11.4 13.4 10.85 14 10 14 9.15 14 8.6 13.4 8 12.85 8 12 8 11.15 8.6 10.55 9.15 10 10 10 10.85 10 11.4 10.55 12 11.15 12 12 M12 54 Q12 54.85 11.4 55.4 10.85 56 10 56 9.15 56 8.6 55.4 8 54.85 8 54 8 53.15 8.6 52.55 9.15 52 10 52 10.85 52 11.4 52.55 12 53.15 12 54 M56 54 Q56 54.85 55.4 55.4 54.85 56 54 56 53.15 56 52.6 55.4 52 54.85 52 54 52 53.15 52.6 52.55 53.15 52 54 52 54.85 52 55.4 52.55 56 53.15 56 54"/>
    <path stroke="none" fill="#9696A3" d="M56 54 Q56 53.15 55.4 52.55 54.85 52 54 52 53.15 52 52.6 52.55 52 53.15 52 54 52 54.85 52.6 55.4 53.15 56 54 56 54.85 56 55.4 55.4 56 54.85 56 54 M64 7.75 L64 58.25 Q63.85 64 58 64 L6 64 Q0.15 64 0 58.25 L0 7.75 Q0.15 2 6 2 L58 2 Q63.85 2 64 7.75 M12 54 Q12 53.15 11.4 52.55 10.85 52 10 52 9.15 52 8.6 52.55 8 53.15 8 54 8 54.85 8.6 55.4 9.15 56 10 56 10.85 56 11.4 55.4 12 54.85 12 54 M12 12 Q12 11.15 11.4 10.55 10.85 10 10 10 9.15 10 8.6 10.55 8 11.15 8 12 8 12.85 8.6 13.4 9.15 14 10 14 10.85 14 11.4 13.4 12 12.85 12 12 M56 12 Q56 11.15 55.4 10.55 54.85 10 54 10 53.15 10 52.6 10.55 52 11.15 52 12 52 12.85 52.6 13.4 53.15 14 54 14 54.85 14 55.4 13.4 56 12.85 56 12"/>
  </g>
</svg>