<svg width="192" height="64" xmlns="http://www.w3.org/2000/svg" xmlns:xlink="http://www.w3.org/1999/xlink">
  <defs/>
  <g>
    <path stroke="none" fill="#747487" d="M0 7.75 L0 6 Q0 0 6 0 L186 0 Q192 0 192 6 L192 7.75 Q191.85 2 186 2 L6 2 Q0.15 2 0 7.75 M184 12 Q184 12.85 183.4 13.4 182.85 14 182 14 181.15 14 180.6 13.4 180 12.85 180 12 180 11.15 180.6 10.55 181.15 10 182 10 182.85 10 183.4 10.55 184 11.15 184 12 M184 54 Q184 54.85 183.4 55.4 182.85 56 182 56 181.15 56 180.6 55.4 180 54.85 180 54 180 53.15 180.6 52.55 181.15 52 182 52 182.85 52 183.4 52.55 184 53.15 184 54 M12 12 Q12 12.85 11.4 13.4 10.85 14 10 14 9.15 14 8.6 13.4 8 12.85 8 12 8 11.15 8.6 10.55 9.15 10 10 10 10.85 10 11.4 10.55 12 11.15 12 12 M12 54 Q12 54.85 11.4 55.4 10.85 56 10 56 9.15 56 8.6 55.4 8 54.85 8 54 8 53.15 8.6 52.55 9.15 52 10 52 10.85 52 11.4 52.55 12 53.15 12 54"/>
    <path stroke="none" fill="#9696A3" d="M12 54 Q12 53.15 11.4 52.55 10.85 52 10 52 9.15 52 8.6 52.55 8 53.15 8 54 8 54.85 8.6 55.4 9.15 56 10 56 10.85 56 11.4 55.4 12 54.85 12 54 M192 7.75 L192 58.25 Q191.85 64 186 64 L6 64 Q0.15 64 0 58.25 L0 7.75 Q0.15 2 6 2 L186 2 Q191.85 2 192 7.75 M12 12 Q12 11.15 11.4 10.55 10.85 10 10 10 9.15 10 8.6 10.55 8 11.15 8 12 8 12.85 8.6 13.4 9.15 14 10 14 10.85 14 11.4 13.4 12 12.85 12 12 M184 54 Q184 53.15 183.4 52.55 182.85 52 182 52 181.15 52 180.6 52.55 180 53.15 180 54 180 54.85 180.6 55.4 181.15 56 182 56 182.85 56 183.4 55.4 184 54.85 184 54 M184 12 Q184 11.15 183.4 10.55 182.85 10 182 10 181.15 10 180.6 10.55 180 11.15 180 12 180 12.85 180.6 13.4 181.15 14 182 14 182.85 14 183.4 13.4 184 12.85 184 12"/>
  </g>
</svg>