<svg width="64" height="64" xmlns="http://www.w3.org/2000/svg" xmlns:xlink="http://www.w3.org/1999/xlink">
  <defs/>
  <g>
    <path stroke="none" fill="#9696A3" d="M60.85 3.2 L60.8 3.15 60.65 3 Q59.55 2 58 2 L6 2 Q4.45 2 3.3 3 L3.15 3.15 3.15 3.2 Q2 4.35 2 6 L2 27.45 2 28 2 58 Q2 59.65 3.15 60.85 4.35 62 6 62 L47.15 62 Q48.8 62 49.95 60.85 L50 60.85 60.85 50 Q62 48.8 62 47.15 L62 6 Q62 4.35 60.85 3.2 M62.25 1.8 Q64 3.55 64 6 L64 47.15 Q64 49.4 62.55 51.1 L62.25 51.45 51.4 62.3 51.05 62.55 Q49.4 64 47.15 64 L6 64 Q3.55 64 1.75 62.3 L1.7 62.25 Q0 60.45 0 58 L0 28 0 27.45 0 6 Q0 3.55 1.7 1.8 L1.7 1.75 1.75 1.75 1.9 1.6 2 1.5 Q3.7 0 6 0 L58 0 Q60.3 0 62 1.5 L62.1 1.6 62.2 1.75 62.25 1.75 62.25 1.8"/>
    <path stroke="none" fill="#FFFFFF" d="M60.85 3.2 Q62 4.35 62 6 L62 47.15 Q62 48.8 60.85 50 L50 60.85 49.95 60.85 Q48.8 62 47.15 62 L6 62 Q4.35 62 3.15 60.85 2 59.65 2 58 L2 28 2 27.45 2 6 Q2 4.35 3.15 3.2 L3.15 3.15 3.3 3 Q4.45 2 6 2 L58 2 Q59.55 2 60.65 3 L60.8 3.15 60.85 3.2 M4 28 L4 58 Q4 58.85 4.55 59.45 5.15 60 6 60 L47.15 60 Q48 60 48.55 59.45 L59.4 48.6 Q60 48 60 47.15 L60 6 Q60 5.15 59.4 4.6 58.85 4 58 4 L6 4 Q5.15 4 4.55 4.6 4 5.15 4 6 L4 27.45 4 28"/>
    <path stroke="none" fill="#DADCE7" d="M4 28 L4 27.45 4 6 Q4 5.15 4.55 4.6 5.15 4 6 4 L58 4 Q58.85 4 59.4 4.6 60 5.15 60 6 L60 47.15 Q60 48 59.4 48.6 L48.55 59.45 Q48 60 47.15 60 L6 60 Q5.15 60 4.55 59.45 4 58.85 4 58 L4 28"/>
  </g>
</svg>