<svg width="64" height="64" xmlns="http://www.w3.org/2000/svg" xmlns:xlink="http://www.w3.org/1999/xlink">
  <defs/>
  <g>
    <path stroke="none" fill="#9696A3" d="M47.15 2 L16.85 2 Q15.2 2 14 3.15 L3.15 14 3.15 14.05 Q2 15.2 2 16.85 L2 47.15 Q2 48.8 3.15 49.95 L3.15 50 14 60.85 Q15.2 62 16.85 62 L47.15 62 Q48.8 62 50 60.85 L60.85 50 60.85 49.95 Q62 48.8 62 47.15 L62 16.85 Q62 15.2 60.85 14.05 L60.85 14 50 3.15 Q48.8 2 47.15 2 M47.15 0 Q49.4 0 51.1 1.45 L51.45 1.75 62.3 12.6 62.55 12.95 Q64 14.6 64 16.85 L64 47.15 Q64 49.4 62.55 51.05 L62.3 51.4 51.45 62.25 51.1 62.55 Q49.4 64 47.15 64 L16.85 64 Q14.6 64 12.9 62.55 L12.55 62.25 1.7 51.4 1.45 51.05 Q0 49.4 0 47.15 L0 16.85 Q0 14.6 1.45 12.95 L1.7 12.6 12.55 1.75 12.9 1.45 Q14.6 0 16.85 0 L47.15 0"/>
    <path stroke="none" fill="#FFFFFF" d="M47.15 2 Q48.8 2 50 3.15 L60.85 14 60.85 14.05 Q62 15.2 62 16.85 L62 47.15 Q62 48.8 60.85 49.95 L60.85 50 50 60.85 Q48.8 62 47.15 62 L16.85 62 Q15.2 62 14 60.85 L3.15 50 3.15 49.95 Q2 48.8 2 47.15 L2 16.85 Q2 15.2 3.15 14.05 L3.15 14 14 3.15 Q15.2 2 16.85 2 L47.15 2 M47.15 4 L16.85 4 Q16 4 15.4 4.6 L4.55 15.45 Q4 16 4 16.85 L4 47.15 Q4 48 4.55 48.55 L15.4 59.4 Q16 60 16.85 60 L47.15 60 Q48 60 48.6 59.4 L59.45 48.55 Q60 48 60 47.15 L60 16.85 Q60 16 59.45 15.45 L48.6 4.6 Q48 4 47.15 4"/>
    <path stroke="none" fill="#DADCE7" d="M47.15 4 Q48 4 48.6 4.6 L59.45 15.45 Q60 16 60 16.85 L60 47.15 Q60 48 59.45 48.55 L48.6 59.4 Q48 60 47.15 60 L16.85 60 Q16 60 15.4 59.4 L4.55 48.55 Q4 48 4 47.15 L4 16.85 Q4 16 4.55 15.45 L15.4 4.6 Q16 4 16.85 4 L47.15 4"/>
  </g>
</svg>