<svg width="64" height="64" xmlns="http://www.w3.org/2000/svg" xmlns:xlink="http://www.w3.org/1999/xlink">
  <defs/>
  <g>
    <path stroke="none" fill="#9696A3" d="M30 32 L30 6 Q30 2 26 2 L5.95 2 Q2 2 2 6 L2 32 2 34 2 58.25 Q2.15 62 6 62 L58 62 Q61.9 62 62 58.2 L62 37.7 61.7 36 Q60.9 34.1 58.3 34 L31.9 34 Q31.15 34 30.6 33.45 30 32.85 30 32 M0 58.25 L0 6 Q0 0 5.95 0 L26 0 Q32 0 32 6 L32 32 58.4 32 Q61.55 32.1 62.95 34 63.55 34.85 63.8 36 L64 37.65 64 58.25 Q63.85 64 58 64 L6 64 Q0.15 64 0 58.25"/>
    <path stroke="none" fill="#FFFFFF" d="M28 32 L28 6 Q28 4 26 4 L5.95 4 Q4 4 4 6 L4 32 2 32 2 6 Q2 2 5.95 2 L26 2 Q30 2 30 6 L30 32 28 32 M31.9 34 L58.3 34 Q60.9 34.1 61.7 36 L62 37.7 62 58.2 Q61.9 62 58 62 L6 62 Q2.15 62 2 58.25 L2 34 31.9 34 M58.25 36 L4 36 4 58.25 Q4.15 60 6 60 L58 60 Q59.9 60 60 58.15 L60 37.8 Q59.95 36.05 58.25 36"/>
    <path stroke="none" fill="#DADCE7" d="M58.25 36 Q59.95 36.05 60 37.8 L60 58.15 Q59.9 60 58 60 L6 60 Q4.15 60 4 58.25 L4 36 58.25 36 M4 32 L4 6 Q4 4 5.95 4 L26 4 Q28 4 28 6 L28 32 4 32"/>
    <path stroke="none" fill="#CFD1D9" d="M4 32 L28 32 30 32 Q30 32.85 30.6 33.45 31.15 34 31.9 34 L2 34 2 32 4 32"/>
  </g>
</svg>