<svg width="64" height="64" xmlns="http://www.w3.org/2000/svg" xmlns:xlink="http://www.w3.org/1999/xlink">
  <defs/>
  <g>
    <path stroke="none" fill="#9696A3" d="M47.15 2 L16.85 2 Q15.2 2 14 3.15 L3.15 14 3.15 14.05 Q2 15.2 2 16.85 L2 58 Q2 62 6 62 L58 62 Q62 62 62 58 L62 16.85 Q62 15.2 60.85 14.05 L60.85 14 50 3.15 Q48.8 2 47.15 2 M47.15 0 Q49.4 0 51.1 1.45 L51.45 1.75 62.3 12.6 62.55 12.95 Q64 14.6 64 16.85 L64 58.25 Q63.85 64 58 64 L6 64 Q0.15 64 0 58.25 L0 16.85 Q0 14.6 1.45 12.95 L1.7 12.6 12.55 1.75 12.9 1.45 Q14.6 0 16.85 0 L47.15 0"/>
    <path stroke="none" fill="#FFFFFF" d="M47.15 2 Q48.8 2 50 3.15 L60.85 14 60.85 14.05 Q62 15.2 62 16.85 L62 58 Q62 62 58 62 L6 62 Q2 62 2 58 L2 16.85 Q2 15.2 3.15 14.05 L3.15 14 14 3.15 Q15.2 2 16.85 2 L47.15 2 M47.15 4 L16.85 4 Q16 4 15.4 4.6 L4.55 15.45 Q4 16 4 16.85 L4 58 Q4 60 6 60 L27.45 60 28 60 58 60 Q60 60 60 58 L60 16.85 Q60 16 59.45 15.45 L48.6 4.6 Q48 4 47.15 4"/>
    <path stroke="none" fill="#DADCE7" d="M47.15 4 Q48 4 48.6 4.6 L59.45 15.45 Q60 16 60 16.85 L60 58 Q60 60 58 60 L28 60 27.45 60 6 60 Q4 60 4 58 L4 16.85 Q4 16 4.55 15.45 L15.4 4.6 Q16 4 16.85 4 L47.15 4"/>
  </g>
</svg>