<svg width="64" height="64" xmlns="http://www.w3.org/2000/svg" xmlns:xlink="http://www.w3.org/1999/xlink">
  <defs/>
  <g>
    <path stroke="none" fill="#9696A3" d="M3.15 60.8 L3.2 60.85 3.35 61 Q4.45 62 6 62 L58 62 Q59.55 62 60.7 61 L60.85 60.85 60.85 60.8 Q62 59.65 62 58 L62 36.55 62 36 62 6 Q62 4.35 60.85 3.15 59.65 2 58 2 L16.85 2 Q15.2 2 14.05 3.15 L14 3.15 3.15 14 Q2 15.2 2 16.85 L2 58 Q2 59.65 3.15 60.8 M1.75 62.2 Q0 60.45 0 58 L0 16.85 Q0 14.6 1.45 12.9 L1.75 12.55 12.6 1.7 12.95 1.45 Q14.6 0 16.85 0 L58 0 Q60.45 0 62.25 1.7 L62.3 1.75 Q64 3.55 64 6 L64 36 64 36.55 64 58 Q64 60.45 62.3 62.2 L62.3 62.25 62.25 62.25 62.1 62.4 62 62.5 Q60.3 64 58 64 L6 64 Q3.7 64 2 62.5 L1.9 62.4 1.8 62.25 1.75 62.25 1.75 62.2"/>
    <path stroke="none" fill="#FFFFFF" d="M60 36 L60 6 Q60 5.15 59.45 4.55 58.85 4 58 4 L16.85 4 Q16 4 15.45 4.55 L4.6 15.4 Q4 16 4 16.85 L4 58 Q4 58.85 4.6 59.4 5.15 60 6 60 L58 60 Q58.85 60 59.45 59.4 60 58.85 60 58 L60 36.55 60 36 M3.15 60.8 Q2 59.65 2 58 L2 16.85 Q2 15.2 3.15 14 L14 3.15 14.05 3.15 Q15.2 2 16.85 2 L58 2 Q59.65 2 60.85 3.15 62 4.35 62 6 L62 36 62 36.55 62 58 Q62 59.65 60.85 60.8 L60.85 60.85 60.7 61 Q59.55 62 58 62 L6 62 Q4.45 62 3.35 61 L3.2 60.85 3.15 60.8"/>
    <path stroke="none" fill="#DADCE7" d="M60 36 L60 36.55 60 58 Q60 58.85 59.45 59.4 58.85 60 58 60 L6 60 Q5.15 60 4.6 59.4 4 58.85 4 58 L4 16.85 Q4 16 4.6 15.4 L15.45 4.55 Q16 4 16.85 4 L58 4 Q58.85 4 59.45 4.55 60 5.15 60 6 L60 36"/>
  </g>
</svg>