<svg width="64" height="64" xmlns="http://www.w3.org/2000/svg" xmlns:xlink="http://www.w3.org/1999/xlink">
  <defs/>
  <g>
    <path stroke="none" fill="#FFFFFF" d="M28 60 L58 60 Q58.85 60 59.45 59.45 60 58.85 60 58 L60 16.85 Q60 16 59.45 15.45 L48.6 4.6 Q48 4 47.15 4 L6 4 Q5.15 4 4.6 4.6 4 5.15 4 6 L4 58 Q4 58.85 4.6 59.45 5.15 60 6 60 L27.45 60 28 60 M3.2 3.15 Q4.35 2 6 2 L47.15 2 Q48.8 2 50 3.15 L60.85 14 60.85 14.05 Q62 15.2 62 16.85 L62 58 Q62 59.65 60.85 60.85 59.65 62 58 62 L28 62 27.45 62 6 62 Q4.35 62 3.2 60.85 L3.15 60.85 3 60.7 Q2 59.55 2 58 L2 6 Q2 4.45 3 3.35 L3.15 3.2 3.2 3.15"/>
    <path stroke="none" fill="#DADCE7" d="M28 60 L27.45 60 6 60 Q5.15 60 4.6 59.45 4 58.85 4 58 L4 6 Q4 5.15 4.6 4.6 5.15 4 6 4 L47.15 4 Q48 4 48.6 4.6 L59.45 15.45 Q60 16 60 16.85 L60 58 Q60 58.85 59.45 59.45 58.85 60 58 60 L28 60"/>
    <path stroke="none" fill="#9696A3" d="M3.2 3.15 L3.15 3.2 3 3.35 Q2 4.45 2 6 L2 58 Q2 59.55 3 60.7 L3.15 60.85 3.2 60.85 Q4.35 62 6 62 L27.45 62 28 62 58 62 Q59.65 62 60.85 60.85 62 59.65 62 58 L62 16.85 Q62 15.2 60.85 14.05 L60.85 14 50 3.15 Q48.8 2 47.15 2 L6 2 Q4.35 2 3.2 3.15 M1.8 1.75 Q3.55 0 6 0 L47.15 0 Q49.4 0 51.1 1.45 L51.45 1.75 62.3 12.6 62.55 12.95 Q64 14.6 64 16.85 L64 58 Q64 60.45 62.3 62.25 L62.25 62.3 Q60.45 64 58 64 L28 64 27.45 64 6 64 Q3.55 64 1.8 62.3 L1.75 62.3 1.75 62.25 1.6 62.1 1.5 62 Q0 60.3 0 58 L0 6 Q0 3.7 1.5 2 L1.6 1.9 1.75 1.8 1.75 1.75 1.8 1.75"/>
  </g>
</svg>