<svg width="16" height="16" xmlns="http://www.w3.org/2000/svg" xmlns:xlink="http://www.w3.org/1999/xlink">
  <defs/>
  <g>
    <path stroke="none" fill="#167DA8" d="M4 2 Q2 2 2 4 L2 12 Q2 14 4 14 L12 14 Q14 14 14 12 L14 4 Q14 2 12 2 L4 2 M4 0 L12 0 Q16 0 16 4 L16 12 Q16 16 12 16 L4 16 Q0 16 0 12 L0 4 Q0 0 4 0"/>
    <path stroke="none" fill="#36BDF7" d="M4 2 L12 2 Q14 2 14 4 L14 12 Q14 14 12 14 L4 14 Q2 14 2 12 L2 4 Q2 2 4 2 M12 4 L4 4 4 12 12 12 12 4"/>
    <path stroke="none" fill="#1C9FD7" d="M12 4 L12 12 4 12 4 4 12 4"/>
  </g>
</svg>