<svg width="28" height="28" xmlns="http://www.w3.org/2000/svg" xmlns:xlink="http://www.w3.org/1999/xlink">
  <defs/>
  <g>
    <path stroke="none" fill="#FFFFFF" d="M22.5 5.45 L22.5 5.5 Q24.9 7.95 25.7 11.1 26.5 11.25 27.1 11.9 L27.15 11.9 Q28 12.75 28 14 L28 14.05 Q28 15.25 27.15 16.1 L27.1 16.15 Q26.5 16.75 25.7 16.95 24.9 20.05 22.5 22.5 20.05 24.9 16.95 25.7 16.75 26.5 16.15 27.1 L16.1 27.15 Q15.25 28 14.05 28 L14 28 Q12.75 28 11.9 27.15 L11.9 27.1 Q11.25 26.5 11.1 25.7 7.95 24.9 5.5 22.5 L5.45 22.5 5.45 22.45 Q3.05 20 2.35 16.95 1.5 16.75 0.9 16.15 L0.9 16.1 Q0 15.25 0 14.05 L0 14 Q0 12.75 0.9 11.9 1.5 11.25 2.35 11.1 3.05 8 5.45 5.55 L5.45 5.5 5.5 5.45 5.55 5.45 Q8 3.05 11.1 2.35 11.25 1.5 11.9 0.9 12.75 0 14 0 L14.05 0 Q15.25 0 16.1 0.9 L16.15 0.9 Q16.75 1.5 16.95 2.35 20 3.05 22.45 5.45 L22.5 5.45 M21.05 6.9 Q18.45 4.35 15 4.05 L15 3 14.7 2.3 Q14.4 2 14 2 13.6 2 13.3 2.3 13 2.6 13 3 L13 4.05 Q9.5 4.35 6.9 6.9 4.35 9.5 4.05 13 L3 13 Q2.6 13 2.3 13.3 2 13.6 2 14 2 14.4 2.3 14.7 2.6 15 3 15 L4.05 15 Q4.35 18.45 6.9 21.05 L6.9 21.1 Q9.5 23.65 13 23.95 L13 25 Q13 25.4 13.3 25.7 13.6 26 14 26 L14.7 25.7 15 25 15 23.95 Q18.45 23.65 21.05 21.05 23.65 18.45 23.95 15 L25 15 25.7 14.7 26 14 25.7 13.3 Q25.4 13 25 13 L23.95 13 Q23.65 9.5 21.1 6.9 L21.05 6.9 M19.65 8.35 Q21.65 10.35 21.95 13 L21 13 Q20.6 13 20.3 13.3 20 13.6 20 14 20 14.4 20.3 14.7 L21 15 21.95 15 Q21.65 17.65 19.65 19.65 17.65 21.65 15 21.95 L15 21 14.7 20.3 Q14.4 20 14 20 13.6 20 13.3 20.3 13 20.6 13 21 L13 21.95 Q10.35 21.65 8.35 19.65 L8.3 19.65 Q6.35 17.65 6.05 15 L7 15 7.7 14.7 8 14 7.7 13.3 Q7.4 13 7 13 L6.05 13 Q6.35 10.35 8.3 8.35 L8.35 8.3 Q10.35 6.35 13 6.05 L13 7 Q13 7.4 13.3 7.7 13.6 8 14 8 L14.7 7.7 15 7 15 6.05 Q17.65 6.35 19.65 8.3 L19.65 8.35 M18.25 9.75 Q17.45 9 16.6 8.55 L16.15 9.1 16.1 9.15 Q15.25 10 14.05 10 L14 10 Q12.75 10 11.9 9.15 L11.9 9.1 11.45 8.55 Q10.55 8.95 9.75 9.7 L9.75 9.75 9.7 9.75 Q8.95 10.55 8.55 11.45 L9.1 11.9 9.15 11.9 Q10 12.75 10 14 L10 14.05 Q10 15.25 9.15 16.1 L9.1 16.15 8.55 16.6 9.75 18.25 11.45 19.45 11.9 18.9 Q12.75 18 14 18 L14.05 18 Q15.25 18 16.1 18.9 L16.15 18.9 16.6 19.45 18.25 18.25 19.45 16.6 18.9 16.15 18.9 16.1 Q18 15.25 18 14.05 L18 14 Q18 12.75 18.9 11.9 L19.45 11.45 18.25 9.75"/>
    <path stroke="none" fill="#16BB77" d="M19.65 8.35 L19.65 8.3 Q17.65 6.35 15 6.05 L15 7 14.7 7.7 14 8 Q13.6 8 13.3 7.7 13 7.4 13 7 L13 6.05 Q10.35 6.35 8.35 8.3 L8.3 8.35 Q6.35 10.35 6.05 13 L7 13 Q7.4 13 7.7 13.3 L8 14 7.7 14.7 7 15 6.05 15 Q6.35 17.65 8.3 19.65 L8.35 19.65 Q10.35 21.65 13 21.95 L13 21 Q13 20.6 13.3 20.3 13.6 20 14 20 14.4 20 14.7 20.3 L15 21 15 21.95 Q17.65 21.65 19.65 19.65 21.65 17.65 21.95 15 L21 15 20.3 14.7 Q20 14.4 20 14 20 13.6 20.3 13.3 20.6 13 21 13 L21.95 13 Q21.65 10.35 19.65 8.35 M21.05 6.9 L21.1 6.9 Q23.65 9.5 23.95 13 L25 13 Q25.4 13 25.7 13.3 L26 14 25.7 14.7 25 15 23.95 15 Q23.65 18.45 21.05 21.05 18.45 23.65 15 23.95 L15 25 14.7 25.7 14 26 Q13.6 26 13.3 25.7 13 25.4 13 25 L13 23.95 Q9.5 23.65 6.9 21.1 L6.9 21.05 Q4.35 18.45 4.05 15 L3 15 Q2.6 15 2.3 14.7 2 14.4 2 14 2 13.6 2.3 13.3 2.6 13 3 13 L4.05 13 Q4.35 9.5 6.9 6.9 9.5 4.35 13 4.05 L13 3 Q13 2.6 13.3 2.3 13.6 2 14 2 14.4 2 14.7 2.3 L15 3 15 4.05 Q18.45 4.35 21.05 6.9"/>
  </g>
</svg>