<svg width="12" height="24" xmlns="http://www.w3.org/2000/svg" xmlns:xlink="http://www.w3.org/1999/xlink">
  <defs/>
  <g>
    <path stroke="none" fill="#2FD792" d="M0 2 Q4.1 2 7.05 4.9 L7.1 4.95 Q10 7.9 10 12 10 16.1 7.05 19.05 4.1 22 0 22 L0 20 Q3.3 20 5.65 17.65 L5.65 17.6 Q8 15.3 8 12 8 8.7 5.65 6.35 3.3 4 0 4 L0 2"/>
    <path stroke="none" fill="#029357" d="M0 2 L0 0 Q4.95 0 8.5 3.5 12 7.05 12 12 12 16.95 8.5 20.45 4.95 24 0 24 L0 22 Q4.1 22 7.05 19.05 10 16.1 10 12 10 7.9 7.1 4.95 L7.05 4.9 Q4.1 2 0 2"/>
    <path stroke="none" fill="#23CD87" d="M0 4 Q3.3 4 5.65 6.35 8 8.7 8 12 L0 12 0 4"/>
    <path stroke="none" fill="#16BB77" d="M8 12 Q8 15.3 5.65 17.6 L5.65 17.65 Q3.3 20 0 20 L0 12 8 12"/>
  </g>
</svg>